<svg width="238" height="801" viewBox="0 0 238 801" fill="none" xmlns="http://www.w3.org/2000/svg">
<rect x="66.8464" y="433.398" width="66.6119" height="66.6119" rx="33.306" transform="rotate(90 66.8464 433.398)" fill="#703BF7"/>
<rect x="237.766" y="627.035" width="66.6119" height="66.6119" rx="33.306" transform="rotate(90 237.766 627.035)" fill="#703BF7"/>
<path d="M15.3636 465.686C15.3636 462.802 15.6735 460.576 16.2862 459.007C16.9059 457.431 17.772 456.243 18.8987 455.431C20.0255 454.618 21.279 454.215 22.6733 454.215C24.0817 454.215 25.3634 454.625 26.5042 455.438C27.645 456.257 28.5534 457.48 29.2224 459.113C29.8914 460.746 30.2224 462.937 30.2224 465.693C30.2224 468.435 29.8914 470.619 29.2365 472.245C28.5816 473.871 27.6731 475.093 26.5182 475.92C25.3633 476.747 24.0817 477.157 22.6733 477.157C21.286 477.157 20.0325 476.754 18.9128 475.956C17.8002 475.157 16.927 473.955 16.3002 472.372C15.6805 470.775 15.3636 468.548 15.3636 465.686ZM17.4199 465.721C17.4199 468.188 17.6382 470.054 18.0819 471.319C18.5185 472.584 19.1664 473.538 20.0255 474.196C20.8846 474.853 21.793 475.178 22.7508 475.178C23.7155 475.178 24.6169 474.86 25.4619 474.217C26.2999 473.581 26.9337 472.62 27.3704 471.34C27.9126 469.785 28.1872 467.912 28.1872 465.721C28.1872 463.523 27.9478 461.721 27.4619 460.321C26.976 458.922 26.307 457.897 25.4549 457.247C24.6028 456.597 23.7014 456.272 22.7578 456.272C21.793 456.272 20.8846 456.597 20.0325 457.247C19.1804 457.897 18.5396 458.851 18.096 460.116C17.6453 461.375 17.4199 463.248 17.4199 465.721Z" fill="white"/>
<path d="M35.208 459.819H32.9897C33.3911 458.017 34.1657 456.631 35.3136 455.663C36.4544 454.695 37.8065 454.207 39.3698 454.207C40.5036 454.207 41.5599 454.469 42.5458 454.984C43.5246 455.508 44.2852 456.207 44.8274 457.084C45.3626 457.967 45.6373 458.886 45.6373 459.847C45.6373 461.727 44.7077 463.219 42.8415 464.314C43.8838 464.738 44.7429 465.36 45.419 466.187C46.3626 467.346 46.8415 468.64 46.8415 470.074C46.8415 471.311 46.5175 472.492 45.8626 473.615C45.2148 474.739 44.3274 475.608 43.2007 476.223C42.074 476.838 40.8205 477.142 39.4262 477.142C37.553 477.142 35.9896 476.598 34.7362 475.517C33.4827 474.435 32.6658 472.838 32.2784 470.739H34.4122C34.7854 472.152 35.3277 473.177 36.0248 473.813C36.9192 474.612 38.067 475.015 39.4543 475.015C41.0317 475.015 42.2993 474.541 43.257 473.587C44.2148 472.64 44.6936 471.523 44.6936 470.244C44.6936 469.396 44.4542 468.597 43.9754 467.855C43.4965 467.113 42.8556 466.555 42.0528 466.18C41.25 465.805 40.0036 465.572 38.3135 465.48V463.473C39.3064 463.473 40.2149 463.296 41.0388 462.943C41.8557 462.589 42.4543 462.144 42.8204 461.6C43.1937 461.056 43.3768 460.462 43.3768 459.819C43.3768 458.872 42.9965 458.045 42.243 457.352C41.4895 456.66 40.5318 456.313 39.3769 456.313C38.4403 456.313 37.6304 456.575 36.9473 457.105C36.2572 457.656 35.6798 458.554 35.208 459.819Z" fill="white"/>
<path d="M188.179 659.94C188.179 657.056 188.489 654.83 189.102 653.261C189.721 651.685 190.588 650.497 191.714 649.684C192.841 648.872 194.095 648.469 195.489 648.469C196.897 648.469 198.179 648.879 199.32 649.691C200.461 650.511 201.369 651.734 202.038 653.367C202.707 654.999 203.038 657.191 203.038 659.947C203.038 662.689 202.707 664.873 202.052 666.499C201.397 668.125 200.489 669.347 199.334 670.174C198.179 671.001 196.897 671.411 195.489 671.411C194.102 671.411 192.848 671.008 191.728 670.21C190.616 669.411 189.743 668.209 189.116 666.626C188.496 665.029 188.179 662.802 188.179 659.94ZM190.235 659.975C190.235 662.442 190.454 664.308 190.897 665.573C191.334 666.838 191.982 667.792 192.841 668.45C193.7 669.107 194.609 669.432 195.566 669.432C196.531 669.432 197.432 669.114 198.277 668.471C199.115 667.835 199.749 666.874 200.186 665.594C200.728 664.039 201.003 662.166 201.003 659.975C201.003 657.777 200.763 655.975 200.277 654.575C199.792 653.176 199.123 652.151 198.27 651.501C197.418 650.851 196.517 650.526 195.573 650.526C194.609 650.526 193.7 650.851 192.848 651.501C191.996 652.151 191.355 653.105 190.912 654.37C190.461 655.629 190.235 657.502 190.235 659.975Z" fill="white"/>
<path d="M216.918 648.461H217.362V663.699H219.995V665.777H217.362V670.859H215.2V665.777H204.785L216.918 648.461ZM215.2 663.699V654.518L208.749 663.692H215.2V663.699Z" fill="white"/>
<path d="M146.284 212.465C147.196 212.113 148.221 212.564 148.574 213.472C148.928 214.373 148.475 215.394 147.564 215.747C146.659 216.099 145.634 215.648 145.281 214.747C145.196 214.535 145.154 214.317 145.154 214.106C145.154 213.402 145.585 212.733 146.284 212.465ZM156.936 207.564C157.798 207.099 158.865 207.416 159.332 208.275C159.791 209.127 159.473 210.197 158.618 210.655H158.611C157.756 211.12 156.688 210.803 156.222 209.944C156.073 209.676 156.01 209.395 156.01 209.113C156.01 208.486 156.342 207.881 156.936 207.564ZM160.872 40.9136C161.381 40.0826 162.47 39.8221 163.304 40.3291C164.131 40.8361 164.392 41.9206 163.883 42.7516C163.374 43.5825 162.286 43.8431 161.452 43.329C160.908 42.998 160.611 42.4206 160.611 41.8291C160.611 41.5122 160.696 41.1953 160.872 40.9136ZM166.901 201.381C167.693 200.817 168.795 201.008 169.361 201.796C169.926 202.592 169.743 203.691 168.944 204.254C168.152 204.817 167.05 204.634 166.484 203.838C166.265 203.529 166.159 203.169 166.159 202.817C166.159 202.268 166.414 201.726 166.901 201.381ZM170.782 47.5683C171.389 46.8078 172.499 46.681 173.262 47.2866C174.026 47.8923 174.153 48.9979 173.545 49.7584C172.937 50.5189 171.828 50.6457 171.064 50.0401C171.064 50.0401 171.064 50.0401 171.057 50.0401C170.619 49.695 170.393 49.181 170.393 48.6598C170.393 48.2796 170.52 47.8923 170.782 47.5683ZM176.026 194.036C176.747 193.381 177.864 193.43 178.521 194.149C179.178 194.86 179.129 195.972 178.408 196.634C177.694 197.289 176.57 197.24 175.913 196.522C175.602 196.184 175.453 195.761 175.453 195.332C175.453 194.86 175.644 194.381 176.026 194.036ZM179.793 55.385C180.493 54.7019 181.609 54.716 182.295 55.4132C182.981 56.1033 182.967 57.223 182.267 57.899C181.574 58.5821 180.45 58.568 179.772 57.8708C179.433 57.5328 179.263 57.0892 179.263 56.6455C179.263 56.1878 179.44 55.7301 179.793 55.385ZM184.175 185.628C184.811 184.888 185.928 184.804 186.67 185.438C187.405 186.064 187.497 187.177 186.861 187.916C186.232 188.656 185.115 188.74 184.373 188.114C183.963 187.761 183.751 187.268 183.751 186.768C183.751 186.367 183.892 185.959 184.175 185.628ZM187.78 64.2439C188.557 63.6524 189.667 63.8002 190.261 64.5749C190.854 65.3425 190.706 66.4481 189.928 67.0396C189.151 67.6311 188.041 67.4832 187.448 66.7086C187.207 66.3917 187.087 66.0185 187.087 65.6453C187.087 65.1171 187.327 64.589 187.78 64.2439ZM191.229 176.297C191.766 175.48 192.861 175.262 193.681 175.797C194.494 176.332 194.713 177.424 194.176 178.234C193.639 179.043 192.543 179.269 191.731 178.734C191.215 178.396 190.939 177.832 190.939 177.262C190.939 176.931 191.031 176.593 191.229 176.297ZM194.614 74.0112C195.462 73.5183 196.544 73.7999 197.039 74.645H197.031C197.526 75.483 197.244 76.5604 196.402 77.0534C195.561 77.5393 194.48 77.2576 193.985 76.4196C193.823 76.145 193.745 75.8351 193.745 75.5323C193.745 74.9267 194.056 74.3422 194.614 74.0112ZM197.074 166.17C197.512 165.297 198.572 164.945 199.449 165.375C200.318 165.804 200.678 166.861 200.24 167.734C199.809 168.607 198.749 168.959 197.873 168.53C197.251 168.22 196.89 167.6 196.89 166.952C196.89 166.685 196.954 166.417 197.074 166.17ZM200.198 84.5461C201.096 84.1588 202.134 84.5743 202.516 85.4686C202.898 86.363 202.488 87.3981 201.59 87.7855C200.693 88.1657 199.654 87.7502 199.265 86.8559C199.173 86.6306 199.124 86.3982 199.124 86.1658C199.124 85.4827 199.526 84.8348 200.198 84.5461ZM201.626 155.41C201.944 154.488 202.954 154.002 203.873 154.326C204.792 154.643 205.28 155.65 204.962 156.565C204.636 157.488 203.626 157.967 202.707 157.65C201.979 157.396 201.527 156.713 201.527 155.988C201.527 155.798 201.555 155.6 201.626 155.41ZM204.424 95.6866C205.357 95.419 206.34 95.9542 206.608 96.8908C206.877 97.8274 206.34 98.7992 205.4 99.0739C204.46 99.3415 203.484 98.7992 203.216 97.8697C203.166 97.7007 203.145 97.5387 203.145 97.3767C203.145 96.6162 203.647 95.912 204.424 95.6866ZM204.799 144.157C205.004 143.206 205.937 142.601 206.898 142.805C207.852 143.009 208.453 143.946 208.248 144.896C208.043 145.847 207.11 146.453 206.149 146.249C205.322 146.072 204.757 145.34 204.757 144.53C204.757 144.404 204.771 144.284 204.799 144.157ZM207.223 107.264C208.192 107.116 209.096 107.771 209.245 108.729C209.4 109.693 208.743 110.595 207.775 110.743C206.813 110.897 205.909 110.243 205.753 109.278C205.739 109.186 205.732 109.095 205.732 109.003C205.732 108.151 206.354 107.405 207.223 107.264ZM206.545 132.601C206.63 131.636 207.492 130.918 208.46 131.003C209.436 131.087 210.156 131.946 210.065 132.911C209.98 133.883 209.125 134.594 208.149 134.509C207.23 134.432 206.538 133.657 206.538 132.756C206.538 132.707 206.545 132.65 206.545 132.601ZM208.573 119.094C209.549 119.066 210.368 119.827 210.397 120.799C210.432 121.77 209.669 122.587 208.693 122.615C207.718 122.651 206.898 121.89 206.863 120.918C206.863 120.897 206.863 120.876 206.863 120.855C206.863 119.911 207.619 119.13 208.573 119.094Z" fill="#4D4D4D"/>
<path d="M13.4258 321.362C14.4011 321.305 15.2351 322.045 15.2988 323.01C15.3553 323.981 14.6132 324.819 13.6449 324.876C12.6695 324.939 11.8284 324.2 11.7719 323.228C11.7719 323.193 11.7648 323.158 11.7648 323.122C11.7648 322.2 12.4857 321.418 13.4258 321.362ZM11.7719 310.897C11.8355 309.926 12.6766 309.193 13.6519 309.249C14.6202 309.313 15.3623 310.144 15.3058 311.116C15.2422 312.087 14.4011 312.827 13.4258 312.763C12.4928 312.707 11.7719 311.933 11.7719 311.01C11.7719 310.975 11.7719 310.933 11.7719 310.897ZM14.7121 333.411C15.6663 333.228 16.5922 333.854 16.7759 334.812C16.9526 335.77 16.3236 336.685 15.3694 336.868C14.4082 337.051 13.4823 336.425 13.3056 335.467C13.2774 335.354 13.2703 335.249 13.2703 335.136C13.2703 334.305 13.864 333.566 14.7121 333.411ZM13.3127 298.658C13.4965 297.708 14.4223 297.081 15.3836 297.264C16.3377 297.44 16.9667 298.362 16.7901 299.32C16.6063 300.271 15.6804 300.898 14.7263 300.722C13.8781 300.56 13.2844 299.82 13.2844 298.989C13.2844 298.884 13.2986 298.771 13.3127 298.658ZM17.5039 345.213C18.4369 344.91 19.4334 345.417 19.7303 346.34C20.0342 347.262 19.5253 348.255 18.5924 348.558C17.6665 348.861 16.6699 348.354 16.366 347.424C16.3094 347.248 16.2812 347.065 16.2812 346.882C16.2812 346.143 16.7547 345.453 17.5039 345.213ZM16.3872 286.715C16.6911 285.785 17.6877 285.278 18.6206 285.581C19.5465 285.884 20.0554 286.877 19.7515 287.799C19.4475 288.722 18.451 289.229 17.5251 288.933C16.7759 288.687 16.3024 287.997 16.3024 287.257C16.3024 287.074 16.3306 286.891 16.3872 286.715ZM21.7729 356.558C22.6563 356.15 23.7094 356.523 24.1264 357.403C24.5434 358.283 24.1618 359.333 23.2783 359.748C22.3948 360.163 21.3417 359.783 20.9318 358.903C20.8116 358.664 20.7622 358.41 20.7622 358.156C20.7622 357.495 21.1368 356.861 21.7729 356.558ZM20.953 275.243C21.37 274.363 22.4231 273.99 23.3066 274.405C24.19 274.821 24.5646 275.87 24.1476 276.743C23.7306 277.624 22.6846 278.004 21.8011 277.588C21.158 277.286 20.7834 276.652 20.7834 275.997C20.7834 275.743 20.8399 275.49 20.953 275.243ZM27.4412 367.283C28.2682 366.762 29.3566 367.008 29.8797 367.825C30.4027 368.642 30.1623 369.734 29.3354 370.255C28.5155 370.776 27.4271 370.536 26.897 369.713C26.7133 369.424 26.6214 369.093 26.6214 368.769C26.6214 368.191 26.9112 367.621 27.4412 367.283ZM26.9253 264.448C27.4483 263.624 28.5438 263.385 29.3637 263.906C30.1906 264.427 30.4309 265.518 29.9079 266.335C29.3849 267.159 28.2894 267.399 27.4695 266.877C26.9394 266.539 26.6497 265.969 26.6497 265.392C26.6497 265.068 26.7415 264.737 26.9253 264.448ZM34.4172 377.212C35.1664 376.593 36.2831 376.698 36.905 377.445C37.527 378.198 37.421 379.304 36.6718 379.923C35.9156 380.543 34.8059 380.438 34.1839 379.691C33.9083 379.36 33.774 378.966 33.774 378.571C33.774 378.064 33.9931 377.557 34.4172 377.212ZM34.2122 254.476C34.8271 253.73 35.9438 253.624 36.7001 254.244C37.4493 254.864 37.5553 255.976 36.9333 256.723C36.3113 257.476 35.1946 257.575 34.4454 256.955C34.0214 256.61 33.8023 256.11 33.8023 255.603C33.8023 255.202 33.9366 254.807 34.2122 254.476ZM42.5734 386.198C43.2449 385.487 44.3616 385.451 45.0754 386.12C45.7822 386.782 45.8176 387.895 45.1532 388.606C44.4817 389.318 43.365 389.353 42.6512 388.684C42.2836 388.339 42.0999 387.867 42.0999 387.402C42.0999 386.966 42.2554 386.536 42.5734 386.198ZM42.6865 245.491C43.3933 244.822 44.51 244.857 45.1815 245.568C45.8529 246.272 45.8176 247.392 45.1037 248.054C44.3899 248.723 43.2731 248.688 42.6088 247.977C42.2836 247.639 42.1282 247.202 42.1282 246.772C42.1282 246.301 42.3119 245.836 42.6865 245.491ZM51.7899 394.092C52.3694 393.31 53.472 393.134 54.2636 393.712C54.2636 393.712 54.2636 393.712 54.2636 393.705C55.0552 394.282 55.2248 395.381 54.6523 396.169C54.0728 396.951 52.9702 397.127 52.1786 396.55C51.705 396.205 51.4577 395.669 51.4577 395.127C51.4577 394.768 51.5637 394.409 51.7899 394.092ZM52.221 237.625C53.0055 237.047 54.1152 237.223 54.6877 238.012C55.2602 238.794 55.0905 239.899 54.2989 240.47C53.5073 241.04 52.4048 240.864 51.8323 240.083C51.599 239.766 51.493 239.406 51.493 239.047C51.493 238.505 51.7474 237.963 52.221 237.625ZM61.9251 400.782C62.3986 399.93 63.473 399.62 64.3282 400.092C65.1834 400.564 65.4943 401.634 65.0208 402.486C64.5473 403.331 63.473 403.641 62.6177 403.176C62.0382 402.852 61.706 402.254 61.706 401.634C61.706 401.345 61.7767 401.05 61.9251 400.782ZM62.6672 231.005C63.5224 230.533 64.5967 230.843 65.0703 231.695C65.5367 232.548 65.2258 233.618 64.3706 234.083C63.5154 234.554 62.4411 234.245 61.9746 233.393C61.8262 233.125 61.7555 232.829 61.7555 232.548C61.7555 231.921 62.0806 231.322 62.6672 231.005ZM72.8166 406.155C73.1771 405.247 74.2019 404.81 75.1136 405.162C76.0183 405.521 76.4636 406.549 76.1031 407.451C75.7427 408.352 74.7108 408.796 73.8061 408.437C73.1134 408.162 72.6894 407.5 72.6894 406.803C72.6894 406.585 72.7318 406.366 72.8166 406.155ZM73.8697 225.738C74.7815 225.379 75.8063 225.822 76.1667 226.731C76.5272 227.632 76.0819 228.653 75.1772 229.012C74.2655 229.372 73.2407 228.928 72.8802 228.027C72.7954 227.815 72.753 227.597 72.753 227.379C72.753 226.674 73.1771 226.013 73.8697 225.738Z" fill="#4D4D4D"/>
<path d="M145.999 419.684C146.36 418.775 147.385 418.332 148.296 418.691C149.201 419.05 149.646 420.071 149.286 420.98C148.925 421.881 147.901 422.325 146.996 421.966C146.303 421.691 145.879 421.029 145.879 420.332C145.879 420.113 145.914 419.895 145.999 419.684ZM147.052 598.122V598.115C147.964 597.756 148.989 598.2 149.349 599.101C149.71 600.01 149.265 601.031 148.36 601.39C147.455 601.749 146.423 601.305 146.07 600.404C145.978 600.193 145.943 599.967 145.943 599.756C145.943 599.052 146.367 598.39 147.052 598.122ZM157.096 424.649C157.569 423.796 158.644 423.487 159.499 423.951C160.354 424.423 160.665 425.494 160.191 426.346C159.725 427.198 158.651 427.508 157.795 427.036C157.209 426.719 156.877 426.113 156.877 425.494C156.877 425.205 156.947 424.916 157.096 424.649ZM157.838 593.045C158.693 592.573 159.767 592.883 160.241 593.735C160.714 594.587 160.403 595.658 159.548 596.129C158.693 596.594 157.619 596.284 157.145 595.439C156.997 595.165 156.926 594.876 156.926 594.587C156.926 593.967 157.258 593.369 157.838 593.045ZM167.478 430.958C168.051 430.177 169.161 430.001 169.945 430.578C169.945 430.578 169.945 430.578 169.945 430.571C170.737 431.148 170.913 432.247 170.341 433.036C169.761 433.817 168.659 433.993 167.867 433.423C167.394 433.078 167.139 432.543 167.139 432C167.139 431.634 167.252 431.275 167.478 430.958ZM167.902 586.658C168.694 586.087 169.797 586.264 170.376 587.045C170.949 587.834 170.772 588.932 169.987 589.51C169.196 590.08 168.093 589.904 167.514 589.123C167.288 588.806 167.182 588.447 167.182 588.087C167.182 587.545 167.429 587.003 167.902 586.658ZM176.985 438.521C177.656 437.81 178.773 437.775 179.487 438.444C180.193 439.106 180.229 440.226 179.564 440.93C178.893 441.641 177.776 441.676 177.062 441.007C176.695 440.662 176.504 440.197 176.504 439.726C176.504 439.296 176.667 438.859 176.985 438.521ZM177.091 579.074C177.804 578.405 178.921 578.44 179.593 579.151C180.257 579.855 180.229 580.968 179.515 581.637C178.801 582.306 177.684 582.271 177.013 581.559C176.695 581.221 176.539 580.785 176.539 580.355C176.539 579.883 176.723 579.419 177.091 579.074ZM185.473 447.197C186.222 446.577 187.339 446.683 187.961 447.43C187.961 447.43 187.961 447.43 187.954 447.43C188.583 448.176 188.477 449.289 187.728 449.908C186.971 450.528 185.862 450.422 185.24 449.676H185.233C184.964 449.345 184.83 448.951 184.83 448.556C184.83 448.049 185.049 447.549 185.473 447.197ZM185.261 570.398C185.89 569.651 187 569.546 187.749 570.165C188.505 570.785 188.611 571.898 187.982 572.644C187.982 572.644 187.982 572.644 187.989 572.644C187.367 573.391 186.25 573.496 185.501 572.877C185.077 572.532 184.858 572.025 184.858 571.517C184.858 571.123 184.992 570.729 185.261 570.398ZM192.802 456.859C193.622 456.338 194.718 456.577 195.241 457.401C195.764 458.218 195.523 459.309 194.697 459.831C193.877 460.352 192.781 460.112 192.258 459.288C192.074 459 191.982 458.669 191.982 458.345C191.982 457.767 192.272 457.197 192.802 456.859ZM192.286 560.778C192.809 559.954 193.898 559.715 194.725 560.236C195.545 560.757 195.792 561.849 195.269 562.666C194.746 563.49 193.65 563.729 192.831 563.208C192.301 562.877 192.011 562.306 192.011 561.722C192.011 561.398 192.096 561.074 192.286 560.778ZM198.859 467.359C199.743 466.943 200.796 467.316 201.213 468.197C201.63 469.077 201.248 470.126 200.372 470.542C199.489 470.957 198.435 470.577 198.018 469.697C197.905 469.457 197.849 469.204 197.849 468.95C197.849 468.288 198.223 467.654 198.859 467.359ZM198.04 550.356C198.457 549.476 199.51 549.103 200.393 549.511C201.277 549.927 201.651 550.976 201.241 551.856C200.824 552.736 199.771 553.117 198.888 552.701C198.252 552.398 197.87 551.764 197.87 551.103C197.87 550.856 197.927 550.596 198.04 550.356ZM203.553 478.534C204.478 478.231 205.475 478.738 205.779 479.668C206.076 480.591 205.574 481.583 204.641 481.886C203.715 482.182 202.718 481.675 202.415 480.753C202.358 480.576 202.33 480.393 202.33 480.21C202.33 479.464 202.803 478.774 203.553 478.534ZM202.436 539.293C202.74 538.371 203.736 537.864 204.662 538.159C205.588 538.462 206.097 539.455 205.8 540.378C205.496 541.307 204.5 541.814 203.574 541.511C202.825 541.272 202.351 540.582 202.351 539.835C202.351 539.659 202.379 539.476 202.436 539.293ZM206.782 490.21C207.744 490.034 208.67 490.661 208.853 491.611C209.03 492.569 208.401 493.492 207.447 493.675C206.486 493.851 205.56 493.224 205.376 492.273C205.355 492.161 205.348 492.048 205.348 491.942C205.348 491.111 205.934 490.372 206.782 490.21ZM205.39 527.765C205.574 526.808 206.5 526.181 207.454 526.364C208.415 526.54 209.044 527.462 208.867 528.42C208.684 529.378 207.758 530.005 206.804 529.822C205.956 529.66 205.362 528.927 205.362 528.096C205.362 527.984 205.369 527.878 205.39 527.765ZM208.521 502.203C209.489 502.146 210.331 502.879 210.394 503.85C210.451 504.822 209.716 505.66 208.74 505.717C207.765 505.78 206.924 505.041 206.867 504.069C206.86 504.034 206.86 503.998 206.86 503.956C206.86 503.034 207.581 502.259 208.521 502.203ZM206.867 515.963C206.931 514.998 207.765 514.259 208.74 514.315C209.716 514.378 210.458 515.209 210.394 516.181C210.338 517.153 209.497 517.892 208.521 517.829C207.588 517.773 206.867 516.998 206.867 516.075C206.867 516.04 206.867 516.005 206.867 515.963Z" fill="#4D4D4D"/>
<path d="M13.425 707.268C14.4004 707.212 15.2344 707.944 15.298 708.916C15.3546 709.888 14.6124 710.726 13.6442 710.782C12.6688 710.846 11.8277 710.106 11.7712 709.134C11.7712 709.099 11.7641 709.064 11.7641 709.029C11.7641 708.099 12.485 707.325 13.425 707.268ZM11.7712 696.804C11.8348 695.832 12.6758 695.092 13.6512 695.156C14.6195 695.219 15.3616 696.05 15.3051 697.022C15.2415 697.994 14.4004 698.733 13.425 698.67C12.4921 698.614 11.7712 697.839 11.7712 696.916C11.7712 696.881 11.7712 696.839 11.7712 696.804ZM14.7114 719.317C15.6655 719.134 16.5914 719.761 16.7752 720.719C16.9519 721.676 16.3228 722.592 15.3687 722.775C14.4075 722.958 13.4816 722.331 13.3049 721.373C13.2766 721.261 13.2696 721.155 13.2696 721.042C13.2696 720.211 13.8632 719.472 14.7114 719.317ZM13.312 684.565C13.4957 683.614 14.4216 682.987 15.3828 683.163C16.337 683.346 16.966 684.269 16.7893 685.227C16.6056 686.177 15.6797 686.804 14.7255 686.628C13.8774 686.466 13.2837 685.727 13.2837 684.896C13.2837 684.79 13.2978 684.677 13.312 684.565ZM17.5032 731.113C18.4361 730.817 19.4327 731.324 19.7295 732.246C20.0334 733.176 19.5246 734.162 18.5916 734.465C17.6657 734.767 16.6692 734.26 16.3652 733.331C16.3087 733.155 16.2804 732.972 16.2804 732.789C16.2804 732.049 16.754 731.359 17.5032 731.113ZM16.3864 672.614C16.6904 671.692 17.6869 671.185 18.6199 671.488C19.5458 671.79 20.0546 672.783 19.7507 673.706C19.4468 674.628 18.4503 675.135 17.5244 674.833C16.7752 674.593 16.3016 673.903 16.3016 673.164C16.3016 672.98 16.3299 672.797 16.3864 672.614ZM21.7721 742.464C22.6556 742.056 23.7087 742.429 24.1257 743.309C24.5427 744.19 24.161 745.239 23.2776 745.654C22.3941 746.063 21.341 745.69 20.9311 744.809C20.8109 744.57 20.7614 744.309 20.7614 744.063C20.7614 743.401 21.136 742.767 21.7721 742.464ZM20.9523 661.15C21.3693 660.27 22.4224 659.896 23.3058 660.312C24.1893 660.727 24.5639 661.777 24.1469 662.65C23.7299 663.53 22.6839 663.91 21.8004 663.495C21.1572 663.192 20.7826 662.558 20.7826 661.903C20.7826 661.65 20.8392 661.396 20.9523 661.15ZM27.4405 753.189C28.2674 752.668 29.3559 752.915 29.8789 753.732C30.4019 754.556 30.1616 755.64 29.3347 756.161C28.5148 756.682 27.4264 756.443 26.8963 755.619C26.7125 755.33 26.6206 754.999 26.6206 754.675C26.6206 754.098 26.9104 753.527 27.4405 753.189ZM26.9246 650.354C27.4476 649.53 28.5431 649.291 29.363 649.812C30.1899 650.333 30.4302 651.425 29.9072 652.242C29.3842 653.066 28.2887 653.305 27.4688 652.784C26.9387 652.446 26.6489 651.875 26.6489 651.298C26.6489 650.974 26.7408 650.643 26.9246 650.354ZM34.4164 763.119C35.1656 762.499 36.2823 762.605 36.9043 763.351C37.5263 764.105 37.4203 765.21 36.664 765.83C35.9148 766.45 34.8052 766.344 34.1832 765.598C33.9076 765.267 33.7733 764.872 33.7733 764.478C33.7733 763.971 33.9924 763.464 34.4164 763.119ZM34.2115 640.383C34.8334 639.636 35.9431 639.531 36.6994 640.15C37.4485 640.77 37.5545 641.883 36.9326 642.629C36.3106 643.383 35.1939 643.481 34.4447 642.862C34.0206 642.517 33.8015 642.01 33.8015 641.51C33.8015 641.108 33.9358 640.714 34.2115 640.383ZM42.5727 772.104C43.2441 771.393 44.3609 771.358 45.0747 772.027C45.7815 772.689 45.8168 773.802 45.1524 774.513C44.481 775.224 43.3643 775.259 42.6504 774.59C42.2829 774.245 42.0991 773.773 42.0991 773.309C42.0991 772.879 42.2547 772.442 42.5727 772.104ZM42.6858 631.397C43.3926 630.728 44.5093 630.763 45.1807 631.475C45.8522 632.186 45.8168 633.299 45.103 633.96C44.3891 634.629 43.2724 634.594 42.601 633.883C42.2829 633.545 42.1274 633.108 42.1274 632.679C42.1274 632.207 42.3112 631.742 42.6858 631.397ZM51.7891 779.998C52.3687 779.217 53.4713 779.041 54.2629 779.611C55.0545 780.189 55.2241 781.287 54.6516 782.076C54.072 782.858 52.9694 783.034 52.1779 782.463C51.7043 782.118 51.4569 781.576 51.4569 781.034C51.4569 780.675 51.563 780.315 51.7891 779.998ZM52.2203 623.531V623.524C53.0048 622.954 54.1144 623.13 54.6869 623.918C55.2594 624.7 55.0898 625.806 54.2982 626.376C53.5066 626.947 52.404 626.771 51.8315 625.989C51.5983 625.672 51.4923 625.313 51.4923 624.954C51.4923 624.411 51.7467 623.876 52.2203 623.531ZM61.9244 786.688C62.3979 785.836 63.4722 785.526 64.3274 785.998C65.1826 786.47 65.4936 787.541 65.0201 788.393C64.5465 789.238 63.4722 789.555 62.617 789.083C62.0375 788.759 61.7053 788.16 61.7053 787.541C61.7053 787.252 61.7759 786.956 61.9244 786.688ZM62.6665 616.905C63.5217 616.44 64.596 616.75 65.0695 617.602C65.536 618.454 65.225 619.524 64.3698 619.989C63.5146 620.461 62.4403 620.151 61.9738 619.299C61.8254 619.031 61.7547 618.736 61.7547 618.454C61.7547 617.827 62.0799 617.229 62.6665 616.905ZM72.8159 792.054C73.1763 791.153 74.2012 790.709 75.1129 791.069C76.0176 791.428 76.4628 792.456 76.1024 793.357C75.7419 794.259 74.71 794.702 73.8054 794.343C73.1127 794.068 72.6886 793.407 72.6886 792.709C72.6886 792.491 72.731 792.273 72.8159 792.054ZM73.869 611.644C74.7807 611.285 75.8056 611.729 76.166 612.63C76.5265 613.538 76.0812 614.56 75.1765 614.919C74.2648 615.278 73.2399 614.834 72.8795 613.933C72.7947 613.715 72.7523 613.496 72.7523 613.285C72.7523 612.581 73.1763 611.919 73.869 611.644Z" fill="#4D4D4D"/>
<path d="M12.2883 124.151C12.2883 99.8423 21.321 76.5472 37.7184 58.5759C54.0026 40.7243 76.1814 29.5556 100.17 27.1261C100.749 27.0698 101.272 27.4923 101.329 28.0698C101.385 28.6472 100.961 29.1683 100.382 29.2247C51.3734 34.1823 14.4087 74.9909 14.4087 124.151C14.4087 176.763 57.374 219.571 110.178 219.571C110.764 219.571 111.238 220.043 111.238 220.628C111.238 221.212 110.764 221.684 110.178 221.684C56.2007 221.684 12.2883 177.932 12.2883 124.151Z" fill="#4D4D4D"/>
<path d="M109.117 220.627C109.117 220.042 109.59 219.57 110.177 219.57C133.409 219.57 155.927 227.817 173.59 242.802C174.035 243.182 174.091 243.844 173.71 244.288C173.328 244.732 172.664 244.788 172.211 244.408C154.93 229.753 132.9 221.683 110.17 221.683C109.59 221.683 109.117 221.211 109.117 220.627Z" fill="#4D4D4D"/>
<rect x="237.766" y="242.34" width="66.6119" height="66.6119" rx="33.306" transform="rotate(90 237.766 242.34)" fill="#703BF7"/>
<path d="M188.323 275.186C188.323 272.302 188.633 270.076 189.246 268.507C189.866 266.931 190.732 265.743 191.859 264.931C192.985 264.118 194.239 263.715 195.633 263.715C197.042 263.715 198.323 264.125 199.464 264.938C200.605 265.757 201.513 266.98 202.182 268.613C202.851 270.246 203.182 272.437 203.182 275.193C203.182 277.935 202.851 280.119 202.196 281.745C201.541 283.371 200.633 284.593 199.478 285.42C198.323 286.247 197.042 286.657 195.633 286.657C194.239 286.657 192.992 286.254 191.873 285.456C190.76 284.657 189.887 283.455 189.26 281.872C188.633 280.275 188.323 278.049 188.323 275.186ZM190.38 275.221C190.38 277.688 190.598 279.554 191.035 280.819C191.471 282.084 192.119 283.038 192.978 283.696C193.837 284.353 194.746 284.678 195.704 284.678C196.668 284.678 197.57 284.36 198.408 283.717C199.246 283.081 199.879 282.12 200.316 280.84C200.858 279.285 201.133 277.412 201.133 275.221C201.133 273.023 200.894 271.221 200.408 269.821C199.922 268.422 199.253 267.397 198.401 266.747C197.549 266.097 196.647 265.772 195.704 265.772C194.739 265.772 193.83 266.097 192.978 266.747C192.133 267.397 191.485 268.351 191.042 269.617C190.605 270.875 190.38 272.748 190.38 275.221Z" fill="white"/>
<path d="M207.661 271.089H205.576C205.633 268.933 206.351 267.166 207.731 265.781C209.104 264.396 210.809 263.703 212.83 263.703C214.83 263.703 216.449 264.353 217.689 265.647C218.928 266.947 219.548 268.474 219.548 270.234C219.548 271.471 219.252 272.63 218.66 273.718C218.069 274.8 216.921 276.27 215.224 278.122L209.802 283.981H219.844V286.087H205.062L213.379 277.068C215.069 275.252 216.161 273.909 216.668 273.033C217.175 272.156 217.428 271.23 217.428 270.262C217.428 269.032 216.97 267.979 216.062 267.089C215.146 266.205 214.034 265.76 212.71 265.76C211.323 265.76 210.161 266.226 209.238 267.152C208.316 268.099 207.788 269.407 207.661 271.089Z" fill="white"/>
<path d="M109.117 413.578C109.117 412.994 109.59 412.522 110.177 412.522C162.981 412.522 205.946 369.713 205.946 317.102C205.946 313.483 205.741 309.828 205.331 306.257C205.26 305.673 205.684 305.152 206.264 305.088C206.844 305.025 207.374 305.441 207.437 306.018C207.854 309.673 208.059 313.398 208.059 317.102C208.059 370.882 164.147 414.635 110.17 414.635C109.59 414.635 109.117 414.163 109.117 413.578Z" fill="#4D4D4D"/>
<path d="M58.1781 430.044C58.1781 429.832 58.2817 429.614 58.4832 429.467C72.8698 418.709 91.2171 412.781 110.134 412.781C110.612 412.781 110.998 413.12 110.998 413.54C110.998 413.96 110.612 414.299 110.134 414.299C91.6259 414.299 73.6758 420.095 59.6001 430.621C59.2374 430.894 58.6905 430.853 58.3796 430.535C58.2472 430.393 58.1781 430.216 58.1781 430.044Z" fill="#4D4D4D"/>
<path d="M12.2883 510.056C12.2883 505.458 12.6135 500.838 13.2496 496.317C13.3344 495.74 13.8645 495.338 14.444 495.416C15.0236 495.5 15.4335 496.028 15.3487 496.606C14.7267 501.028 14.4087 505.549 14.4087 510.049C14.4087 562.66 57.374 605.469 110.178 605.469C110.764 605.469 111.238 605.941 111.238 606.525C111.238 607.11 110.764 607.582 110.178 607.582C56.2007 607.589 12.2883 563.836 12.2883 510.056Z" fill="#4D4D4D"/>
<path d="M109.117 606.533C109.117 605.948 109.59 605.477 110.177 605.477C133.409 605.477 155.927 613.723 173.59 628.708C174.035 629.089 174.091 629.75 173.71 630.194C173.328 630.638 172.664 630.694 172.211 630.314C154.93 615.659 132.9 607.589 110.17 607.589C109.59 607.589 109.117 607.117 109.117 606.533Z" fill="#4D4D4D"/>
<rect x="172.186" y="0.164062" width="66.6119" height="66.6119" rx="33.306" transform="rotate(90 172.186 0.164062)" fill="#703BF7"/>
<path d="M122.554 31.6038C122.554 28.7202 122.864 26.4938 123.477 24.9248C124.097 23.3486 124.963 22.1613 126.089 21.3485C127.216 20.5357 128.47 20.1328 129.864 20.1328C131.272 20.1328 132.554 20.5428 133.695 21.3555C134.836 22.1754 135.744 23.3981 136.413 25.0308C137.082 26.6634 137.413 28.8544 137.413 31.6109C137.413 34.3532 137.082 36.5371 136.427 38.1627C135.772 39.7883 134.864 41.011 133.709 41.8379C132.554 42.6649 131.272 43.0748 129.864 43.0748C128.47 43.0748 127.223 42.6719 126.104 41.8733C124.991 41.0746 124.118 39.8731 123.491 38.2899C122.871 36.6926 122.554 34.4663 122.554 31.6038ZM124.611 31.6391C124.611 34.1058 124.829 35.9717 125.266 37.2368C125.702 38.5019 126.35 39.4561 127.209 40.1134C128.068 40.7707 128.977 41.0958 129.934 41.0958C130.899 41.0958 131.801 40.7778 132.639 40.1346C133.477 39.4985 134.11 38.5373 134.547 37.258C135.089 35.7031 135.364 33.8301 135.364 31.6391C135.364 29.4411 135.124 27.6388 134.638 26.2394C134.153 24.8399 133.484 23.8151 132.631 23.1649C131.779 22.5147 130.878 22.1895 129.934 22.1895C128.97 22.1895 128.061 22.5147 127.209 23.1649C126.364 23.8151 125.716 24.7693 125.273 26.0344C124.836 27.2925 124.611 29.1654 124.611 31.6391Z" fill="white"/>
<path d="M143.997 20.6758H148.272V42.5225H146.11V22.8103H142.695L143.997 20.6758Z" fill="white"/>
<path d="M109.117 799.48C109.117 798.895 109.591 798.424 110.177 798.424C162.981 798.424 205.946 755.615 205.946 703.004C205.946 699.152 205.713 695.272 205.254 691.469C205.19 690.892 205.6 690.363 206.18 690.293C206.759 690.223 207.289 690.638 207.36 691.215C207.833 695.103 208.067 699.067 208.067 703.004C208.067 756.784 164.154 800.536 110.177 800.536C109.591 800.536 109.117 800.064 109.117 799.48Z" fill="#4D4D4D"/>
<path d="M201.352 687.866C201.352 685.345 203.416 683.289 205.946 683.289C208.476 683.289 210.54 685.345 210.54 687.866C210.54 690.387 208.476 692.444 205.946 692.444C203.416 692.444 201.352 690.387 201.352 687.866ZM208.42 687.866C208.42 686.507 207.31 685.402 205.946 685.402C204.582 685.402 203.472 686.507 203.472 687.866C203.472 689.226 204.582 690.331 205.946 690.331C207.31 690.331 208.42 689.226 208.42 687.866Z" fill="#4D4D4D"/>
</svg>
