<svg width="1288" height="383" viewBox="0 0 1288 383" fill="none" xmlns="http://www.w3.org/2000/svg">
<rect x="697.182" y="275.051" width="107.195" height="107.195" rx="53.5974" fill="#004080"/>
<rect x="1008.79" width="107.195" height="107.195" rx="53.5974" fill="#004080"/>
<path d="M723.805 332.577C723.805 327.936 724.303 324.354 725.289 321.829C726.286 319.292 727.68 317.381 729.494 316.073C731.307 314.766 733.324 314.117 735.568 314.117C737.834 314.117 739.897 314.777 741.733 316.085C743.568 317.404 745.03 319.372 746.107 321.999C747.183 324.627 747.716 328.153 747.716 332.588C747.716 337.001 747.183 340.516 746.13 343.132C745.076 345.748 743.614 347.716 741.755 349.046C739.897 350.377 737.834 351.037 735.568 351.037C733.335 351.037 731.318 350.389 729.516 349.103C727.726 347.818 726.32 345.884 725.312 343.337C724.315 340.766 723.805 337.183 723.805 332.577ZM727.114 332.634C727.114 336.603 727.465 339.606 728.179 341.642C728.882 343.678 729.924 345.213 731.307 346.271C732.689 347.329 734.151 347.852 735.692 347.852C737.245 347.852 738.695 347.34 740.055 346.305C741.404 345.282 742.424 343.735 743.126 341.676C743.999 339.174 744.441 336.16 744.441 332.634C744.441 329.097 744.056 326.196 743.274 323.944C742.492 321.692 741.415 320.043 740.044 318.997C738.673 317.95 737.222 317.427 735.704 317.427C734.151 317.427 732.689 317.95 731.318 318.997C729.947 320.043 728.916 321.578 728.202 323.614C727.476 325.639 727.114 328.653 727.114 332.634Z" fill="white"/>
<path d="M755.74 323.136H752.17C752.816 320.236 754.062 318.007 755.91 316.448C757.746 314.89 759.921 314.105 762.437 314.105C764.262 314.105 765.962 314.526 767.548 315.357C769.123 316.198 770.347 317.324 771.22 318.735C772.081 320.156 772.523 321.635 772.523 323.182C772.523 326.207 771.027 328.607 768.024 330.37C769.701 331.053 771.084 332.053 772.172 333.384C773.69 335.25 774.461 337.331 774.461 339.64C774.461 341.63 773.94 343.53 772.886 345.338C771.843 347.147 770.415 348.546 768.602 349.535C766.789 350.525 764.772 351.014 762.528 351.014C759.513 351.014 756.998 350.138 754.98 348.398C752.963 346.658 751.649 344.087 751.025 340.709H754.459C755.06 342.984 755.932 344.633 757.054 345.657C758.493 346.942 760.341 347.59 762.573 347.59C765.112 347.59 767.151 346.828 768.693 345.293C770.234 343.769 771.004 341.972 771.004 339.913C771.004 338.548 770.619 337.263 769.849 336.068C769.078 334.874 768.047 333.976 766.755 333.373C765.463 332.77 763.457 332.395 760.737 332.247V329.017C762.335 329.017 763.797 328.732 765.123 328.164C766.437 327.595 767.401 326.878 767.99 326.003C768.591 325.127 768.885 324.171 768.885 323.136C768.885 321.612 768.273 320.282 767.061 319.167C765.848 318.052 764.307 317.495 762.448 317.495C760.941 317.495 759.638 317.916 758.539 318.769C757.428 319.656 756.499 321.1 755.74 323.136Z" fill="white"/>
<path d="M341.644 147.213C341.077 145.746 341.802 144.097 343.264 143.528C344.715 142.96 346.358 143.687 346.925 145.155C347.491 146.611 346.766 148.26 345.316 148.828C344.976 148.965 344.624 149.033 344.284 149.033C343.151 149.033 342.074 148.339 341.644 147.213ZM333.757 130.073C333.009 128.685 333.519 126.968 334.901 126.217C336.272 125.478 337.995 125.99 338.731 127.366V127.377C339.479 128.754 338.969 130.471 337.587 131.222C337.156 131.461 336.703 131.563 336.25 131.563C335.241 131.563 334.266 131.028 333.757 130.073ZM65.5758 123.738C64.2386 122.919 63.8193 121.167 64.6352 119.825C65.4511 118.494 67.1963 118.074 68.5335 118.892C69.8708 119.711 70.2901 121.463 69.4628 122.805C68.9302 123.681 68.0009 124.159 67.049 124.159C66.539 124.159 66.0291 124.022 65.5758 123.738ZM323.807 114.036C322.9 112.762 323.206 110.988 324.475 110.078C325.756 109.168 327.524 109.463 328.43 110.749C329.337 112.023 329.042 113.797 327.762 114.707C327.263 115.059 326.685 115.23 326.118 115.23C325.235 115.23 324.362 114.821 323.807 114.036ZM76.2849 107.792C75.061 106.813 74.857 105.028 75.8316 103.799C76.8062 102.571 78.5854 102.366 79.8093 103.344C81.0331 104.322 81.2371 106.108 80.2626 107.337C80.2626 107.337 80.2626 107.337 80.2626 107.348C79.7073 108.053 78.88 108.417 78.0414 108.417C77.4295 108.417 76.8062 108.212 76.2849 107.792ZM311.987 99.3521C310.933 98.192 311.012 96.3949 312.168 95.3371C313.313 94.2794 315.103 94.359 316.169 95.5191C317.223 96.6679 317.143 98.4763 315.987 99.5341C315.443 100.035 314.763 100.273 314.072 100.273C313.313 100.273 312.542 99.9663 311.987 99.3521ZM88.8638 93.2898C87.7646 92.1638 87.7872 90.3667 88.9091 89.2635C90.0197 88.1602 91.8216 88.183 92.9095 89.309C94.0087 90.4236 93.9861 92.2321 92.8641 93.324C92.3202 93.8699 91.6063 94.1429 90.8923 94.1429C90.1557 94.1429 89.4191 93.8585 88.8638 93.2898ZM298.456 86.238C297.266 85.2144 297.13 83.4173 298.15 82.2231C299.159 81.0402 300.949 80.8923 302.139 81.916C303.329 82.9282 303.465 84.7253 302.456 85.9196C301.89 86.5792 301.097 86.9205 300.292 86.9205C299.646 86.9205 298.989 86.693 298.456 86.238ZM103.12 80.4374C102.168 79.1862 102.406 77.4005 103.653 76.4451C104.888 75.4897 106.667 75.7286 107.619 76.9797C108.571 78.2308 108.333 80.0165 107.086 80.9719C106.576 81.3586 105.976 81.552 105.375 81.552C104.525 81.552 103.675 81.1653 103.12 80.4374ZM283.441 74.8869C282.126 74.0225 281.775 72.2595 282.636 70.9402C283.497 69.6322 285.254 69.2796 286.557 70.144C287.86 71.0084 288.223 72.7714 287.362 74.0794C286.818 74.9097 285.911 75.3532 284.993 75.3532C284.461 75.3532 283.917 75.2054 283.441 74.8869ZM118.838 69.4388C118.045 68.074 118.498 66.3338 119.858 65.5376V65.549C121.206 64.7528 122.94 65.2077 123.734 66.5612C124.515 67.9147 124.062 69.6549 122.714 70.4511C122.272 70.7127 121.773 70.8378 121.286 70.8378C120.311 70.8378 119.371 70.3374 118.838 69.4388ZM267.145 65.4807C265.74 64.7755 265.173 63.0694 265.864 61.6591C266.555 60.2601 268.255 59.68 269.661 60.3852C271.066 61.079 271.632 62.7851 270.941 64.1955C270.443 65.1964 269.445 65.7764 268.403 65.7764C267.972 65.7764 267.541 65.6741 267.145 65.4807ZM135.791 60.4535C135.168 59.009 135.837 57.337 137.276 56.7228C138.715 56.1086 140.381 56.7683 141.004 58.2128C141.616 59.6573 140.947 61.3292 139.508 61.9548C139.146 62.1027 138.772 62.1823 138.398 62.1823C137.298 62.1823 136.256 61.534 135.791 60.4535ZM249.829 58.1559C248.344 57.6441 247.562 56.0176 248.084 54.539C248.594 53.0604 250.214 52.2756 251.687 52.7875C253.172 53.3107 253.943 54.9371 253.433 56.4157C253.025 57.5872 251.925 58.3152 250.758 58.3152C250.452 58.3152 250.135 58.2697 249.829 58.1559ZM153.719 53.6519C153.288 52.1505 154.15 50.5696 155.657 50.1374C157.164 49.7051 158.728 50.5696 159.17 52.0823C159.601 53.595 158.728 55.1646 157.232 55.5968C156.96 55.6764 156.699 55.7106 156.439 55.7106C155.215 55.7106 154.082 54.903 153.719 53.6519ZM231.72 53.0491C230.19 52.7192 229.215 51.2179 229.544 49.671C229.873 48.1356 231.38 47.1688 232.91 47.4986C234.44 47.8285 235.414 49.3298 235.085 50.8767C234.802 52.2074 233.624 53.1173 232.32 53.1173C232.116 53.1173 231.924 53.0946 231.72 53.0491ZM172.349 49.1478C172.111 47.5896 173.165 46.1337 174.707 45.8949C176.259 45.6447 177.71 46.7024 177.948 48.2607C178.197 49.8075 177.143 51.2634 175.591 51.5136C175.443 51.5363 175.296 51.5477 175.149 51.5477C173.777 51.5477 172.576 50.5468 172.349 49.1478ZM213.123 50.2397C211.571 50.1032 210.415 48.7156 210.551 47.1574C210.687 45.5878 212.069 44.4277 213.622 44.5755C215.186 44.712 216.33 46.0883 216.194 47.6578C216.07 49.1365 214.823 50.2511 213.373 50.2511C213.293 50.2511 213.203 50.2397 213.123 50.2397ZM191.388 46.9754C191.343 45.4058 192.566 44.0865 194.13 44.041C195.694 43.9841 197.009 45.2125 197.054 46.7821C197.111 48.3517 195.887 49.671 194.323 49.7279C194.289 49.7279 194.255 49.7279 194.221 49.7279C192.702 49.7279 191.445 48.5109 191.388 46.9754Z" fill="#4D4D4D"/>
<path d="M516.887 361.019C516.797 359.449 517.987 358.107 519.539 358.004C521.103 357.913 522.452 359.108 522.542 360.666C522.644 362.235 521.454 363.589 519.891 363.68C519.834 363.68 519.777 363.691 519.721 363.691C518.236 363.691 516.978 362.531 516.887 361.019ZM500.048 363.68C498.484 363.578 497.305 362.224 497.396 360.655C497.498 359.096 498.835 357.902 500.399 357.993C501.963 358.095 503.153 359.449 503.051 361.019C502.96 362.52 501.713 363.68 500.229 363.68C500.172 363.68 500.104 363.68 500.048 363.68ZM536.277 358.948C535.983 357.413 536.991 355.923 538.532 355.627C540.074 355.343 541.547 356.355 541.841 357.891C542.136 359.438 541.127 360.927 539.586 361.212C539.405 361.257 539.235 361.269 539.054 361.269C537.716 361.269 536.526 360.313 536.277 358.948ZM480.352 361.2C478.822 360.905 477.813 359.415 478.108 357.868C478.391 356.332 479.876 355.32 481.417 355.605C482.947 355.9 483.956 357.39 483.672 358.926C483.412 360.291 482.222 361.246 480.885 361.246C480.715 361.246 480.533 361.223 480.352 361.2ZM555.27 354.456C554.783 352.954 555.599 351.351 557.083 350.873C558.568 350.384 560.166 351.203 560.653 352.704C561.14 354.194 560.324 355.798 558.829 356.287C558.545 356.378 558.251 356.423 557.956 356.423C556.766 356.423 555.656 355.661 555.27 354.456ZM461.132 356.253C459.636 355.764 458.82 354.16 459.308 352.659C459.795 351.169 461.393 350.35 462.877 350.839C464.362 351.328 465.178 352.932 464.702 354.422C464.305 355.627 463.195 356.389 462.005 356.389C461.71 356.389 461.416 356.344 461.132 356.253ZM573.527 347.586C572.869 346.164 573.47 344.47 574.887 343.799C576.303 343.127 577.992 343.742 578.66 345.163C579.329 346.585 578.717 348.28 577.3 348.939C576.915 349.133 576.507 349.212 576.099 349.212C575.034 349.212 574.014 348.61 573.527 347.586ZM442.672 348.905C441.255 348.234 440.655 346.54 441.323 345.118C441.992 343.696 443.68 343.093 445.086 343.764C446.502 344.435 447.114 346.119 446.445 347.541C445.958 348.576 444.938 349.178 443.884 349.178C443.476 349.178 443.068 349.087 442.672 348.905ZM590.786 338.464C589.947 337.133 590.344 335.382 591.659 334.54C592.973 333.699 594.73 334.085 595.568 335.416C596.407 336.735 596.021 338.487 594.696 339.34C594.231 339.636 593.698 339.784 593.177 339.784C592.248 339.784 591.33 339.317 590.786 338.464ZM425.299 339.294C423.973 338.453 423.588 336.69 424.427 335.37C425.265 334.04 427.022 333.653 428.336 334.495C429.662 335.336 430.047 337.099 429.209 338.419C428.665 339.272 427.747 339.738 426.818 339.738C426.296 339.738 425.764 339.59 425.299 339.294ZM606.765 327.238C605.767 326.033 605.937 324.236 607.139 323.235C608.351 322.234 610.13 322.404 611.128 323.61C612.125 324.827 611.955 326.613 610.754 327.614C610.221 328.057 609.586 328.273 608.952 328.273C608.136 328.273 607.32 327.921 606.765 327.238ZM409.253 327.568C408.051 326.579 407.881 324.781 408.879 323.564C409.876 322.359 411.666 322.188 412.868 323.189C414.08 324.19 414.239 325.987 413.242 327.193C412.686 327.875 411.882 328.228 411.066 328.228C410.42 328.228 409.785 328.012 409.253 327.568ZM621.225 314.113C620.08 313.032 620.023 311.235 621.1 310.086C622.165 308.949 623.956 308.892 625.1 309.961C626.245 311.042 626.302 312.839 625.225 313.988C624.67 314.579 623.91 314.875 623.163 314.875C622.46 314.875 621.769 314.625 621.225 314.113ZM394.792 313.931C393.716 312.793 393.773 310.996 394.917 309.916C396.05 308.835 397.852 308.892 398.917 310.041C399.994 311.19 399.937 312.987 398.793 314.056C398.249 314.579 397.546 314.829 396.855 314.829C396.096 314.829 395.348 314.534 394.792 313.931ZM633.928 299.281C632.67 298.349 632.387 296.574 633.316 295.3C633.316 295.3 633.316 295.3 633.305 295.3C634.234 294.027 636.002 293.754 637.271 294.675C638.529 295.608 638.812 297.382 637.883 298.656C637.328 299.418 636.467 299.816 635.594 299.816C635.016 299.816 634.438 299.645 633.928 299.281ZM382.134 298.587C381.205 297.325 381.488 295.539 382.757 294.618C384.015 293.697 385.795 293.97 386.712 295.244C387.63 296.517 387.347 298.292 386.089 299.213C385.579 299.588 385.001 299.759 384.423 299.759C383.551 299.759 382.678 299.35 382.134 298.587ZM644.694 282.971C643.323 282.209 642.824 280.48 643.583 279.104C644.343 277.728 646.065 277.227 647.436 277.989C648.796 278.752 649.295 280.48 648.547 281.857C648.026 282.789 647.062 283.324 646.065 283.324C645.601 283.324 645.125 283.21 644.694 282.971ZM371.482 281.777C370.722 280.401 371.221 278.672 372.592 277.91C373.964 277.159 375.686 277.66 376.434 279.036C377.193 280.412 376.695 282.141 375.323 282.892C374.893 283.13 374.417 283.244 373.964 283.244C372.955 283.244 371.992 282.721 371.482 281.777ZM653.341 265.444C651.879 264.864 651.176 263.215 651.743 261.748C652.321 260.292 653.975 259.575 655.426 260.155C656.876 260.735 657.59 262.396 657.012 263.852C656.57 264.966 655.505 265.649 654.383 265.649C654.032 265.649 653.681 265.581 653.341 265.444ZM363.005 263.749C362.427 262.282 363.141 260.633 364.603 260.053C366.054 259.473 367.697 260.189 368.275 261.645C368.853 263.112 368.139 264.762 366.688 265.342C366.348 265.478 365.997 265.546 365.646 265.546C364.512 265.546 363.447 264.864 363.005 263.749Z" fill="#4D4D4D"/>
<path d="M675.111 147.672C673.649 147.092 672.935 145.443 673.513 143.976C674.091 142.52 675.734 141.803 677.196 142.383C678.647 142.964 679.36 144.613 678.782 146.069C678.341 147.183 677.275 147.866 676.153 147.866C675.802 147.866 675.451 147.809 675.111 147.672ZM962.262 145.978H962.251C961.673 144.51 962.387 142.861 963.837 142.281C965.299 141.701 966.942 142.418 967.52 143.873C968.098 145.329 967.384 146.99 965.934 147.559C965.594 147.706 965.231 147.763 964.891 147.763C963.758 147.763 962.692 147.081 962.262 145.978ZM683.1 129.815C681.729 129.053 681.23 127.324 681.978 125.948C682.738 124.572 684.46 124.072 685.831 124.834C687.202 125.584 687.701 127.313 686.942 128.689C686.432 129.633 685.457 130.168 684.46 130.168C683.995 130.168 683.531 130.054 683.1 129.815ZM954.091 128.621C953.332 127.245 953.831 125.516 955.202 124.754C956.573 123.992 958.296 124.492 959.055 125.869C959.803 127.245 959.304 128.974 957.944 129.736C957.502 129.975 957.038 130.088 956.573 130.088C955.576 130.088 954.612 129.554 954.091 128.621ZM693.254 113.107C691.996 112.186 691.713 110.4 692.642 109.138C692.642 109.138 692.642 109.138 692.631 109.138C693.56 107.864 695.328 107.579 696.597 108.501C697.855 109.433 698.138 111.208 697.22 112.482C696.665 113.244 695.804 113.653 694.931 113.653C694.342 113.653 693.764 113.471 693.254 113.107ZM943.813 112.425C942.895 111.151 943.178 109.377 944.436 108.444C945.705 107.523 947.473 107.807 948.402 109.069C949.32 110.343 949.037 112.118 947.779 113.05C947.269 113.414 946.691 113.585 946.113 113.585C945.241 113.585 944.368 113.187 943.813 112.425ZM705.425 97.8093C704.28 96.7288 704.224 94.9318 705.3 93.783C706.366 92.6456 708.167 92.5888 709.301 93.6579C710.445 94.7384 710.502 96.5355 709.425 97.6842C708.87 98.2757 708.122 98.5828 707.363 98.5828C706.672 98.5828 705.969 98.3212 705.425 97.8093ZM931.608 97.6387C930.531 96.49 930.588 94.6929 931.732 93.6124C932.866 92.5433 934.656 92.5887 935.733 93.7375C936.809 94.8863 936.753 96.6833 935.608 97.7639C935.064 98.2757 934.362 98.5259 933.67 98.5259C932.911 98.5259 932.163 98.2302 931.608 97.6387ZM719.386 84.1494C718.389 82.9437 718.559 81.1467 719.76 80.1458C719.76 80.1458 719.76 80.1458 719.76 80.1571C720.962 79.1449 722.752 79.3155 723.749 80.5211C724.747 81.7381 724.577 83.5238 723.375 84.5247V84.5361C722.843 84.9683 722.208 85.1844 721.574 85.1844C720.758 85.1844 719.953 84.8318 719.386 84.1494ZM917.646 84.4906C916.445 83.4783 916.275 81.6926 917.272 80.487C918.27 79.27 920.06 79.0994 921.261 80.1116C921.261 80.1116 921.261 80.1116 921.261 80.1003C922.463 81.1012 922.633 82.8982 921.635 84.1039C921.08 84.7863 920.264 85.1389 919.448 85.1389C918.814 85.1389 918.179 84.9228 917.646 84.4906ZM734.934 72.3547C734.096 71.0353 734.481 69.2724 735.807 68.4307C737.122 67.589 738.878 67.9758 739.717 69.3065C740.555 70.6259 740.17 72.3888 738.844 73.2305C738.379 73.5262 737.847 73.674 737.326 73.674C736.396 73.674 735.478 73.2077 734.934 72.3547ZM902.166 73.185C900.84 72.3433 900.455 70.5917 901.294 69.261C902.132 67.9416 903.889 67.5435 905.203 68.3852C906.529 69.2269 906.915 70.9898 906.076 72.3092C905.543 73.1622 904.625 73.6286 903.685 73.6286C903.164 73.6286 902.642 73.4921 902.166 73.185ZM751.831 62.6073C751.162 61.1856 751.763 59.4909 753.18 58.8198C754.596 58.1487 756.285 58.7629 756.953 60.1733C757.622 61.595 757.01 63.2897 755.593 63.9608C755.208 64.1428 754.8 64.2338 754.392 64.2338C753.327 64.2338 752.307 63.6309 751.831 62.6073ZM885.394 63.9267C883.978 63.2556 883.377 61.5609 884.035 60.1392C884.703 58.7174 886.392 58.1146 887.808 58.7743C889.225 59.4454 889.837 61.1401 889.168 62.5618C888.681 63.5854 887.661 64.1996 886.596 64.1996C886.199 64.1996 885.78 64.1086 885.394 63.9267ZM769.815 55.0551C769.328 53.5651 770.144 51.9614 771.64 51.4723C773.125 50.9946 774.722 51.8021 775.21 53.3035C775.686 54.7935 774.87 56.3972 773.385 56.8863C773.102 56.9772 772.807 57.0227 772.513 57.0227C771.311 57.0227 770.201 56.2607 769.815 55.0551ZM867.591 56.8521C866.107 56.3631 865.291 54.7593 865.767 53.2694C866.254 51.7794 867.852 50.9605 869.336 51.4382C870.832 51.9273 871.648 53.531 871.161 55.0209C870.776 56.2266 869.665 56.9886 868.464 56.9886C868.18 56.9886 867.886 56.9431 867.591 56.8521ZM788.605 49.8572C788.321 48.3104 789.33 46.8204 790.86 46.5247C792.401 46.2403 793.885 47.2526 794.18 48.7881C794.463 50.3349 793.455 51.8249 791.925 52.1206C791.744 52.1547 791.562 52.1661 791.392 52.1661C790.055 52.1661 788.865 51.2221 788.605 49.8572ZM849.04 52.0979C847.499 51.8021 846.49 50.3122 846.785 48.7767C847.068 47.2299 848.553 46.2176 850.094 46.5019C851.635 46.7977 852.644 48.2876 852.349 49.8231C852.089 51.188 850.91 52.1434 849.573 52.1434C849.391 52.1434 849.221 52.132 849.04 52.0979ZM807.904 47.0592C807.813 45.501 808.992 44.1475 810.555 44.0452C812.119 43.9542 813.468 45.1371 813.558 46.7067C813.66 48.2763 812.471 49.6297 810.907 49.7207C810.85 49.7321 810.793 49.7321 810.725 49.7321C809.241 49.7321 807.994 48.572 807.904 47.0592ZM830.047 49.7207C828.495 49.6184 827.305 48.2763 827.395 46.7067C827.497 45.1371 828.835 43.9428 830.398 44.0452C831.962 44.1362 833.152 45.4897 833.05 47.0592C832.959 48.5606 831.713 49.7207 830.228 49.7207C830.172 49.7207 830.115 49.7207 830.047 49.7207Z" fill="#4D4D4D"/>
<path d="M1137.9 361.019C1137.81 359.449 1138.99 358.107 1140.56 358.004C1142.12 357.913 1143.47 359.108 1143.56 360.666C1143.66 362.235 1142.47 363.589 1140.91 363.68C1140.85 363.68 1140.79 363.691 1140.74 363.691C1139.24 363.691 1137.99 362.531 1137.9 361.019ZM1121.06 363.68C1119.5 363.578 1118.31 362.224 1118.41 360.655C1118.51 359.096 1119.85 357.902 1121.41 357.993C1122.98 358.095 1124.17 359.449 1124.07 361.019C1123.98 362.52 1122.73 363.68 1121.24 363.68C1121.19 363.68 1121.12 363.68 1121.06 363.68ZM1157.29 358.948C1157 357.413 1158.01 355.923 1159.55 355.627C1161.09 355.343 1162.56 356.355 1162.86 357.891C1163.15 359.438 1162.14 360.927 1160.6 361.212C1160.42 361.257 1160.25 361.269 1160.07 361.269C1158.73 361.269 1157.54 360.313 1157.29 358.948ZM1101.37 361.2C1099.84 360.905 1098.83 359.415 1099.11 357.868C1099.41 356.332 1100.89 355.32 1102.43 355.605C1103.96 355.9 1104.97 357.39 1104.69 358.926C1104.43 360.291 1103.24 361.246 1101.9 361.246C1101.73 361.246 1101.55 361.223 1101.37 361.2ZM1176.27 354.456C1175.8 352.954 1176.61 351.351 1178.1 350.873C1179.6 350.384 1181.18 351.203 1181.67 352.704C1182.16 354.194 1181.34 355.798 1179.84 356.287C1179.56 356.378 1179.27 356.423 1178.97 356.423C1177.78 356.423 1176.67 355.661 1176.27 354.456ZM1082.14 356.253C1080.65 355.764 1079.84 354.16 1080.32 352.659C1080.81 351.169 1082.41 350.35 1083.89 350.839C1085.38 351.328 1086.19 352.932 1085.71 354.422C1085.32 355.627 1084.21 356.389 1083.02 356.389C1082.73 356.389 1082.43 356.344 1082.14 356.253ZM1194.54 347.586C1193.89 346.164 1194.49 344.47 1195.9 343.799C1197.32 343.127 1199.01 343.742 1199.68 345.163C1200.33 346.585 1199.73 348.28 1198.32 348.939C1197.93 349.133 1197.51 349.212 1197.12 349.212C1196.05 349.212 1195.03 348.61 1194.54 347.586ZM1063.69 348.905C1062.27 348.234 1061.67 346.54 1062.34 345.118C1063.01 343.696 1064.7 343.093 1066.1 343.764C1067.52 344.435 1068.13 346.119 1067.46 347.541C1066.97 348.576 1065.95 349.178 1064.9 349.178C1064.49 349.178 1064.08 349.087 1063.69 348.905ZM1211.8 338.464C1210.96 337.133 1211.36 335.382 1212.67 334.54C1214 333.699 1215.75 334.085 1216.58 335.416C1217.42 336.735 1217.04 338.487 1215.71 339.34C1215.25 339.636 1214.71 339.784 1214.19 339.784C1213.26 339.784 1212.35 339.317 1211.8 338.464ZM1046.32 339.294C1044.99 338.453 1044.6 336.69 1045.44 335.37C1046.28 334.04 1048.04 333.653 1049.35 334.495C1050.68 335.336 1051.06 337.099 1050.22 338.419C1049.68 339.272 1048.76 339.738 1047.83 339.738C1047.31 339.738 1046.78 339.59 1046.32 339.294ZM1227.78 327.238C1226.78 326.033 1226.95 324.236 1228.15 323.235C1229.37 322.234 1231.15 322.404 1232.14 323.621C1233.14 324.827 1232.97 326.613 1231.77 327.614C1231.24 328.057 1230.6 328.273 1229.97 328.273C1229.15 328.273 1228.34 327.921 1227.78 327.238ZM1030.27 327.568C1029.07 326.567 1028.9 324.781 1029.89 323.564C1030.89 322.359 1032.68 322.188 1033.88 323.189C1035.1 324.19 1035.25 325.987 1034.26 327.193C1033.7 327.875 1032.89 328.228 1032.08 328.228C1031.44 328.228 1030.8 328.012 1030.27 327.568ZM1242.24 314.113C1241.1 313.032 1241.04 311.235 1242.12 310.086C1243.18 308.949 1244.97 308.892 1246.12 309.961C1247.26 311.042 1247.32 312.839 1246.24 313.988C1245.69 314.579 1244.93 314.875 1244.18 314.875C1243.49 314.875 1242.78 314.625 1242.24 314.113ZM1015.81 313.931C1014.73 312.793 1014.79 310.996 1015.93 309.916C1017.08 308.835 1018.87 308.892 1019.93 310.041C1021.01 311.19 1020.95 312.987 1019.81 314.067C1019.26 314.579 1018.56 314.829 1017.87 314.829C1017.11 314.829 1016.36 314.534 1015.81 313.931ZM1254.94 299.281C1253.69 298.349 1253.4 296.574 1254.32 295.3C1255.25 294.027 1257.02 293.754 1258.29 294.675C1259.55 295.608 1259.83 297.382 1258.91 298.656C1258.36 299.418 1257.48 299.816 1256.61 299.816C1256.03 299.816 1255.45 299.645 1254.94 299.281ZM1003.15 298.587H1003.14C1002.22 297.325 1002.5 295.539 1003.77 294.618C1005.03 293.697 1006.81 293.97 1007.73 295.244C1008.65 296.517 1008.36 298.292 1007.11 299.213C1006.6 299.588 1006.02 299.759 1005.44 299.759C1004.57 299.759 1003.71 299.35 1003.15 298.587ZM1265.71 282.971C1264.34 282.209 1263.84 280.48 1264.6 279.104C1265.36 277.728 1267.08 277.227 1268.45 277.989C1269.81 278.752 1270.32 280.48 1269.56 281.857C1269.04 282.789 1268.08 283.324 1267.08 283.324C1266.62 283.324 1266.14 283.21 1265.71 282.971ZM992.486 281.777C991.738 280.401 992.237 278.672 993.608 277.91C994.979 277.159 996.702 277.66 997.45 279.036C998.209 280.412 997.71 282.141 996.339 282.892C995.909 283.13 995.433 283.244 994.979 283.244C993.971 283.244 993.007 282.721 992.486 281.777ZM1274.35 265.444C1272.89 264.864 1272.18 263.215 1272.76 261.748C1273.34 260.292 1274.99 259.575 1276.44 260.155C1277.89 260.735 1278.61 262.396 1278.03 263.852C1277.59 264.966 1276.52 265.649 1275.4 265.649C1275.05 265.649 1274.7 265.581 1274.35 265.444ZM984.021 263.749C983.443 262.282 984.157 260.633 985.607 260.053C987.069 259.473 988.713 260.189 989.29 261.645C989.868 263.112 989.155 264.762 987.704 265.342C987.353 265.478 987.001 265.546 986.661 265.546C985.528 265.546 984.463 264.864 984.021 263.749Z" fill="#4D4D4D"/>
<path d="M199.525 362.847C160.405 362.847 122.918 348.311 93.9974 321.924C65.2698 295.719 47.2967 260.028 43.387 221.425C43.2964 220.492 43.9763 219.65 44.9056 219.559C45.8348 219.468 46.6734 220.151 46.7641 221.084C54.7421 299.95 120.413 359.435 199.525 359.435C284.189 359.435 353.078 290.293 353.078 205.319C353.078 204.375 353.838 203.613 354.778 203.613C355.719 203.613 356.478 204.375 356.478 205.319C356.478 292.181 286.07 362.847 199.525 362.847Z" fill="#4D4D4D"/>
<path d="M354.78 207.026C353.839 207.026 353.08 206.264 353.08 205.32C353.08 167.934 366.35 131.697 390.466 103.273C391.078 102.557 392.143 102.466 392.857 103.08C393.571 103.694 393.661 104.763 393.049 105.491C369.467 133.3 356.48 168.753 356.48 205.331C356.48 206.264 355.721 207.026 354.78 207.026Z" fill="#4D4D4D"/>
<rect x="389.725" width="107.195" height="107.195" rx="53.5974" fill="#004080"/>
<path d="M417.211 54.2138C417.211 49.5733 417.71 45.9905 418.695 43.4654C419.693 40.9291 421.087 39.0182 422.9 37.7102C424.713 36.4022 426.73 35.7539 428.974 35.7539C431.24 35.7539 433.303 36.4136 435.139 37.7216C436.975 39.041 438.436 41.0087 439.513 43.6361C440.59 46.2634 441.122 49.7894 441.122 54.2252C441.122 58.6383 440.59 62.1529 439.536 64.7689C438.482 67.3849 437.02 69.3526 435.161 70.6833C433.303 72.0141 431.24 72.6738 428.974 72.6738C426.73 72.6738 424.724 72.0254 422.922 70.7402C421.132 69.4549 419.727 67.5214 418.718 64.9736C417.71 62.4031 417.211 58.8203 417.211 54.2138ZM420.52 54.2707C420.52 58.2402 420.871 61.2429 421.574 63.2789C422.277 65.3148 423.319 66.8503 424.702 67.9081C426.084 68.9659 427.546 69.4891 429.087 69.4891C430.64 69.4891 432.09 68.9772 433.439 67.9422C434.787 66.9185 435.807 65.3717 436.51 63.313C437.383 60.8107 437.825 57.7966 437.825 54.2707C437.825 50.7334 437.439 47.833 436.657 45.581C435.875 43.329 434.799 41.6797 433.428 40.6333C432.056 39.5869 430.606 39.0637 429.087 39.0637C427.535 39.0637 426.073 39.5869 424.702 40.6333C423.342 41.6797 422.299 43.2152 421.585 45.2512C420.883 47.2757 420.52 50.2898 420.52 54.2707Z" fill="white"/>
<path d="M448.33 47.6162H444.976C445.066 44.1471 446.222 41.3037 448.443 39.0744C450.653 36.8451 453.396 35.7305 456.648 35.7305C459.866 35.7305 462.473 36.7769 464.467 38.8583C466.462 40.9511 467.459 43.4078 467.459 46.2399C467.459 48.2304 466.983 50.0957 466.031 51.8473C465.079 53.5875 463.232 55.9533 460.501 58.9332L451.775 68.3622H467.935V71.7516H444.148L457.532 57.2385C460.252 54.3154 462.008 52.1544 462.824 50.744C463.64 49.3336 464.048 47.8437 464.048 46.2854C464.048 44.3064 463.312 42.6117 461.85 41.1786C460.376 39.7568 458.586 39.0403 456.455 39.0403C454.223 39.0403 452.353 39.7909 450.869 41.2809C449.384 42.805 448.534 44.9092 448.33 47.6162Z" fill="white"/>
<path d="M665.286 207.027C664.346 207.027 663.586 206.265 663.586 205.321C663.586 120.347 594.697 51.2055 510.033 51.2055C504.208 51.2055 498.326 51.5353 492.581 52.195C491.64 52.3087 490.802 51.6263 490.7 50.6936C490.598 49.761 491.266 48.908 492.196 48.8056C498.077 48.1345 504.072 47.8047 510.033 47.8047C596.578 47.8047 666.986 118.47 666.986 205.332C666.986 206.265 666.227 207.027 665.286 207.027Z" fill="#4D4D4D"/>
<path d="M399.993 111.394C399.54 111.394 399.098 111.212 398.769 110.87L385.578 97.1421C385.182 96.7213 385.012 96.1298 385.148 95.5612C385.284 94.9925 385.692 94.5375 386.236 94.3442L407.824 86.6896C408.447 86.4621 409.15 86.6327 409.614 87.1104C410.079 87.5881 410.215 88.2933 409.977 88.9188L401.58 110.302C401.364 110.848 400.9 111.234 400.333 111.348C400.209 111.382 400.095 111.394 399.993 111.394ZM389.851 96.6758L399.37 106.582L405.433 91.1481L389.851 96.6758Z" fill="#4D4D4D"/>
<path d="M691.78 289C691.438 289 691.088 288.833 690.852 288.509C673.539 265.357 664 235.832 664 205.39C664 204.621 664.545 204 665.221 204C665.897 204 666.442 204.621 666.442 205.39C666.442 235.174 675.77 264.06 692.708 286.712C693.148 287.295 693.082 288.175 692.57 288.676C692.342 288.889 692.057 289 691.78 289Z" fill="#4D4D4D"/>
<path d="M820.538 362.847C813.138 362.847 805.704 362.324 798.429 361.3C797.5 361.164 796.854 360.311 796.978 359.378C797.114 358.445 797.964 357.786 798.893 357.922C806.01 358.923 813.286 359.435 820.527 359.435C905.191 359.435 974.081 290.293 974.081 205.319C974.081 204.375 974.84 203.613 975.781 203.613C976.721 203.613 977.48 204.375 977.48 205.319C977.492 292.181 907.084 362.847 820.538 362.847Z" fill="#4D4D4D"/>
<path d="M708.289 304.806C708.096 304.806 707.904 304.772 707.722 304.703L686.134 297.049C685.59 296.855 685.182 296.4 685.046 295.832C684.91 295.263 685.08 294.672 685.477 294.251L698.668 280.522C699.064 280.101 699.654 279.919 700.22 280.033C700.787 280.147 701.263 280.545 701.467 281.08L709.864 302.463C710.114 303.088 709.966 303.793 709.502 304.271C709.184 304.624 708.742 304.806 708.289 304.806ZM689.749 294.728L705.331 300.256L699.268 284.822L689.749 294.728Z" fill="#4D4D4D"/>
<path d="M975.796 207.026C974.855 207.026 974.096 206.264 974.096 205.32C974.096 167.934 987.366 131.697 1011.48 103.273C1012.09 102.557 1013.16 102.466 1013.87 103.08C1014.59 103.694 1014.68 104.763 1014.06 105.491C990.482 133.3 977.495 168.753 977.495 205.331C977.495 206.264 976.736 207.026 975.796 207.026Z" fill="#4D4D4D"/>
<rect y="105.531" width="107.195" height="107.195" rx="53.5974" fill="#004080"/>
<path d="M29.9023 164.71C29.9023 160.069 30.401 156.486 31.3869 153.961C32.3841 151.425 33.778 149.514 35.5912 148.206C37.4044 146.898 39.4215 146.25 41.6654 146.25C43.9318 146.25 45.9943 146.91 47.8302 148.218C49.666 149.537 51.1279 151.505 52.2045 154.132C53.281 156.759 53.8137 160.285 53.8137 164.721C53.8137 169.134 53.281 172.649 52.2271 175.264C51.1732 177.88 49.7113 179.848 47.8528 181.179C45.9943 182.51 43.9318 183.169 41.6654 183.169C39.4215 183.169 37.4157 182.521 35.6139 181.236C33.8233 179.95 32.4181 178.017 31.4095 175.469C30.4123 172.899 29.9023 169.316 29.9023 164.71ZM33.2114 164.766C33.2114 168.736 33.5627 171.739 34.2653 173.775C34.9679 175.81 36.0105 177.346 37.393 178.404C38.7756 179.461 40.2375 179.985 41.7787 179.985C43.3312 179.985 44.7818 179.473 46.1303 178.438C47.4789 177.414 48.4988 175.867 49.2014 173.809C50.074 171.306 50.5159 168.292 50.5159 164.766C50.5159 161.229 50.1306 158.329 49.3487 156.077C48.5668 153.825 47.4902 152.176 46.119 151.129C44.7478 150.083 43.2972 149.56 41.7787 149.56C40.2261 149.56 38.7643 150.083 37.393 151.129C36.0332 152.176 34.9906 153.711 34.2766 155.747C33.574 157.772 33.2114 160.786 33.2114 164.766Z" fill="white"/>
<path d="M64.409 147.125H71.2878V182.282H67.8087V150.56H62.3125L64.409 147.125Z" fill="white"/>
<path d="M1286.3 207.027C1285.36 207.027 1284.6 206.265 1284.6 205.321C1284.6 120.347 1215.71 51.2051 1131.05 51.2051C1124.85 51.2051 1118.6 51.5805 1112.48 52.3198C1111.55 52.4221 1110.7 51.7624 1110.59 50.8298C1110.48 49.8971 1111.15 49.0441 1112.08 48.9304C1118.33 48.1683 1124.71 47.793 1131.05 47.793C1217.59 47.793 1288 118.459 1288 205.321C1288 206.265 1287.24 207.027 1286.3 207.027Z" fill="#4D4D4D"/>
<path d="M1021.01 111.394C1020.56 111.394 1020.11 111.212 1019.78 110.87L1006.59 97.1421C1006.2 96.7213 1006.03 96.1298 1006.16 95.5612C1006.3 94.9925 1006.71 94.5375 1007.25 94.3442L1028.84 86.6896C1029.46 86.4621 1030.17 86.6327 1030.63 87.1104C1031.09 87.5881 1031.23 88.2933 1030.99 88.9188L1022.6 110.302C1022.38 110.848 1021.92 111.234 1021.35 111.348C1021.22 111.382 1021.11 111.394 1021.01 111.394ZM1010.87 96.6758L1020.39 106.582L1026.45 91.1481L1010.87 96.6758Z" fill="#4D4D4D"/>
<path d="M1036.14 54.2021C1036.14 49.5615 1036.64 45.9787 1037.62 43.4537C1038.62 40.9173 1040.01 39.0065 1041.83 37.6985C1043.64 36.3905 1045.66 35.7422 1047.9 35.7422C1050.17 35.7422 1052.23 36.4019 1054.07 37.7099C1055.9 39.0293 1057.36 40.997 1058.44 43.6243C1059.52 46.2517 1060.05 49.7776 1060.05 54.2135C1060.05 58.6266 1059.52 62.1411 1058.46 64.7571C1057.41 67.3732 1055.95 69.3409 1054.09 70.6716C1052.23 72.0024 1050.17 72.662 1047.9 72.662C1045.67 72.662 1043.65 72.0137 1041.85 70.7285C1040.06 69.4432 1038.65 67.5096 1037.65 64.9619C1036.65 62.3914 1036.14 58.8086 1036.14 54.2021ZM1039.45 54.259C1039.45 58.2285 1039.8 61.2312 1040.51 63.2672C1041.22 65.3031 1042.26 66.8386 1043.64 67.8964C1045.02 68.9541 1046.49 69.4773 1048.03 69.4773C1049.58 69.4773 1051.03 68.9655 1052.39 67.9305C1053.74 66.9068 1054.76 65.36 1055.46 63.3013C1056.33 60.799 1056.77 57.7849 1056.77 54.259C1056.77 50.7217 1056.39 47.8213 1055.61 45.5693C1054.83 43.3172 1053.75 41.668 1052.38 40.6216C1051.01 39.5752 1049.56 39.052 1048.04 39.052C1046.49 39.052 1045.02 39.5752 1043.65 40.6216C1042.28 41.668 1041.25 43.2035 1040.54 45.2394C1039.81 47.264 1039.45 50.2781 1039.45 54.259Z" fill="white"/>
<path d="M1082.39 35.7305H1083.1V60.2527H1087.34V63.5966H1083.1V71.7745H1079.62V63.5966H1062.86L1082.39 35.7305ZM1079.62 60.2527V45.4779L1069.24 60.2413H1079.62V60.2527Z" fill="white"/>
</svg>
