<svg width="54" height="53" viewBox="0 0 54 53" fill="none" xmlns="http://www.w3.org/2000/svg">
<path d="M19.515 42.0297H6.40148C3.38755 42.0297 0.9375 39.5692 0.9375 36.5474V10.2323C0.9375 7.21046 3.38755 4.75 6.40148 4.75H39.1853C42.1993 4.75 44.6493 7.21046 44.6493 10.2323V19.004C44.6493 19.6114 44.1597 20.1005 43.5565 20.1005C42.9533 20.1005 42.4637 19.6114 42.4637 19.004V10.2323C42.4637 8.41876 40.9928 6.94292 39.1853 6.94292H6.40148C4.59399 6.94292 3.12309 8.41876 3.12309 10.2323V36.5474C3.12309 38.3609 4.59399 39.8368 6.40148 39.8368H19.515C20.1182 39.8368 20.6078 40.328 20.6078 40.9332C20.6078 41.5385 20.1182 42.0297 19.515 42.0297Z" fill="#004080"/>
<path d="M43.5565 15.7161H2.0303C1.42707 15.7161 0.9375 15.2249 0.9375 14.6198C0.9375 14.0146 1.42707 13.5234 2.0303 13.5234H43.5565C44.1597 13.5234 44.6493 14.0146 44.6493 14.6198C44.6493 15.2249 44.1597 15.7161 43.5565 15.7161Z" fill="#004080"/>
<path d="M34.8135 11.3322C34.2103 11.3322 33.7207 10.8409 33.7207 10.2357V1.46369C33.7207 0.858419 34.2103 0.367188 34.8135 0.367188C35.4167 0.367188 35.9063 0.858419 35.9063 1.46369V10.2357C35.9063 10.8409 35.4167 11.3322 34.8135 11.3322Z" fill="#004080"/>
<path d="M39.1849 52.9962C31.3517 52.9962 24.9785 46.6017 24.9785 38.7423C24.9785 30.8828 31.3517 24.4883 39.1849 24.4883C47.018 24.4883 53.3912 30.8828 53.3912 38.7423C53.3912 46.6017 47.018 52.9962 39.1849 52.9962ZM39.1849 26.6812C32.5582 26.6812 27.1641 32.0911 27.1641 38.7423C27.1641 45.3934 32.5582 50.8033 39.1849 50.8033C45.8116 50.8033 51.2056 45.3934 51.2056 38.7423C51.2056 32.0911 45.8116 26.6812 39.1849 26.6812Z" fill="#004080"/>
</svg>
